<?xml version="1.0" encoding="UTF-8"?>
<svg id="Layer_2" xmlns="http://www.w3.org/2000/svg" viewBox="0 0 30.8 26">
    <g id="Layer_1-2">
        <path
            d="M27.4,10.8H14v-3.8c0-1.87-.73-3.63-2.05-4.95C10.63,.73,8.87,0,7,0S3.37,.73,2.05,2.05C.73,3.37,0,5.13,0,7v4.8c0,.55,.45,1,1,1s1-.45,1-1V7c0-1.34,.52-2.59,1.46-3.54s2.2-1.46,3.54-1.46,2.59,.52,3.54,1.46,1.46,2.2,1.46,3.54v3.8h-1.4c-1.88,0-3.4,1.53-3.4,3.4v8.4c0,1.88,1.53,3.4,3.4,3.4H27.4c1.87,0,3.4-1.53,3.4-3.4V14.2c0-1.87-1.53-3.4-3.4-3.4Zm1.4,11.8c0,.77-.63,1.4-1.4,1.4H10.6c-.77,0-1.4-.63-1.4-1.4V14.2c0-.77,.63-1.4,1.4-1.4H27.4c.77,0,1.4,.63,1.4,1.4v8.4Z" />
    </g>
</svg>